<svg xmlns="http://www.w3.org/2000/svg" xmlns:xlink="http://www.w3.org/1999/xlink" width="158.215" height="53.815" viewBox="0 0 158.215 53.815">
  <defs>
    <linearGradient id="linear-gradient" y1="0.847" x2="1.214" y2="0.074" gradientUnits="objectBoundingBox">
      <stop offset="0" stop-color="#cc3334"/>
      <stop offset="0.522" stop-color="#8546db"/>
      <stop offset="1" stop-color="#2b9ad9"/>
    </linearGradient>
    <clipPath id="clip-path">
      <rect id="Rectangle_26831" data-name="Rectangle 26831" width="25.781" height="28.189" fill="#fff"/>
    </clipPath>
  </defs>
  <g id="Group_212445" data-name="Group 212445" transform="translate(-57.475 -18.72)">
    <g id="Group_212443" data-name="Group 212443" transform="translate(-15.525 -25.28)">
      <path id="Path_252747" data-name="Path 252747" d="M18.294-20.623H1.227v5.648h9.215L1.147-3.716V1.732H18.494V-3.917H8.8l9.495-11.257ZM42.532-9.445c0-7.091-5.048-11.5-11.618-11.5-6.53,0-11.618,4.407-11.618,11.5s4.968,11.5,11.538,11.5,11.7-4.407,11.7-11.5Zm-16.265,0c0-3.806,2.163-5.569,4.647-5.569,2.4,0,4.647,1.763,4.647,5.569,0,3.766-2.284,5.569-4.726,5.569-2.485,0-4.569-1.8-4.569-5.569ZM60,1.732H66.81V-11.328c0-6.01-3.446-9.535-8.614-9.535a8.2,8.2,0,0,0-6.771,3.2v-2.965H44.575V1.732h6.851V-10.407c0-3.045,1.683-4.726,4.287-4.726S60-13.45,60-10.407ZM91.849-9.445c0-7.091-5.048-11.5-11.618-11.5-6.53,0-11.618,4.407-11.618,11.5s4.968,11.5,11.538,11.5S91.849-2.354,91.849-9.445Zm-16.265,0c0-3.806,2.163-5.569,4.647-5.569,2.4,0,4.647,1.763,4.647,5.569,0,3.766-2.284,5.569-4.726,5.569C77.667-3.877,75.583-5.679,75.583-9.445Z" transform="translate(139.366 80.352)" fill="#19191d"/>
      <g id="Group_139651" data-name="Group 139651" transform="translate(73 44)">
        <path id="Path_252748" data-name="Path 252748" d="M26.907,0C46.586,0,53.814,7.228,53.814,26.907S46.587,53.815,26.907,53.815,0,46.587,0,26.907,7.228,0,26.907,0Z" transform="translate(0 0)" fill="url(#linear-gradient)"/>
        <g id="Group_139649" data-name="Group 139649" transform="translate(14.193 12.933)" clip-path="url(#clip-path)">
          <path id="Path_252753" data-name="Path 252753" d="M25.588,31.336H3.255a.193.193,0,0,0-.193.193V32a.193.193,0,0,0,.193.193H15.468L.055,47.609A.188.188,0,0,0,0,47.742v.589a.193.193,0,0,0,.193.193H22.525a.193.193,0,0,0,.193-.193v-.475a.193.193,0,0,0-.193-.193H10.356L25.726,32.25a.188.188,0,0,0,.055-.133v-.588a.193.193,0,0,0-.193-.193M9.109,47.664H1.246L16.671,32.2h7.906Z" transform="translate(0 -25.836)" fill="#fff"/>
          <path id="Path_252754" data-name="Path 252754" d="M60.587,0H42.642a.193.193,0,0,0-.193.193V.667a.193.193,0,0,0,.193.193H60.587A.193.193,0,0,0,60.78.667V.193A.193.193,0,0,0,60.587,0" transform="translate(-34.998)" fill="#fff"/>
          <path id="Path_252755" data-name="Path 252755" d="M18.137,155.7H.193a.193.193,0,0,0-.193.193v.474a.193.193,0,0,0,.193.193H18.137a.193.193,0,0,0,.193-.193v-.474a.193.193,0,0,0-.193-.193" transform="translate(0 -128.372)" fill="#fff"/>
        </g>
      </g>
    </g>
  </g>
</svg>
